<svg id="Layer_1" data-name="Layer 1" xmlns="http://www.w3.org/2000/svg" viewBox="0 0 1024.9 173.77"><path d="M81.69,873.11H265.5q.81.17.81.81V913.6a.72.72,0,0,1-.81.81h-154q-19.77,0-27.54,20.89a39.19,39.19,0,0,0-.8,6.32v35.63q0,19.11,19.1,26.88a24,24,0,0,0,9.24,1.62H210.6v-31.9c.1-.54.38-.81.81-.81H265.5q.81.16.81.81v72.23a.72.72,0,0,1-.81.81H82.82q-25.26,0-43.89-19.12Q27.6,1014.49,27.6,999.43V920.24q0-26.38,30.28-41.62Q71.16,873.12,81.69,873.11Z" transform="translate(-27.6 -873.11)"/><path d="M283.31,873.11h53.93q.81.17.81.81V974.66q0,22.83,19.92,29.79a30.54,30.54,0,0,0,8.42,1.3H465.5V873.92c.11-.53.38-.81.81-.81H520.4q.81.17.81.81v172.16a.72.72,0,0,1-.81.81H335.3q-23.66,0-42.27-19.76-10.53-12.8-10.53-27.21v-126C282.61,873.39,282.88,873.11,283.31,873.11Z" transform="translate(-27.6 -873.11)"/><path d="M538.22,873.11h183q24.94,0,43.57,19.11,11.33,13.13,11.33,28.35V952q0,24.46-26.88,40.49l-7,3.08,33.85,51-.81.33H709.56q-2.43-2.76-32.23-47.78H593v47a.72.72,0,0,1-.81.81H538.22a.72.72,0,0,1-.81-.81V873.92C537.52,873.39,537.79,873.11,538.22,873.11ZM593,914.41v43.4H698.39q16.83,0,21.37-14.73a35.63,35.63,0,0,0,.65-6.64q0-15.71-13.12-20.9a30.71,30.71,0,0,0-8.26-1.13Z" transform="translate(-27.6 -873.11)"/><path d="M894.5,873.11h55.23q1.62,1.47,34.17,56.85,65.75,111.59,68.5,116.6v.33H988.6q-2.28-2.28-59.11-99.44-7-11.66-7.29-11.66-64,108.66-65.75,111.1H792.32v-.81Q890.78,878.79,894.5,873.11Z" transform="translate(-27.6 -873.11)"/><path d="M1052.5,893.84a20.54,20.54,0,1,1-20.27-20.63A20.58,20.58,0,0,1,1052.5,893.84Zm-37.41.06a16.87,16.87,0,1,0,33.74,0,16.87,16.87,0,0,0-33.74,0Zm6.92-11.73h11.78c6.14,0,8.12,1.75,8.12,7.16,0,4.39-.78,5.71-3.85,6.5,2.47.42,3.61,1.86,3.61,4.51V905h-5.83v-3.67c.06-2.17-.78-3.07-2.83-3h-5.23V905H1022Zm11.12,11.37c2.41,0,2.89-.6,2.89-3.49,0-2.58-.36-3-2.89-3h-5.35v6.49Z" transform="translate(-27.6 -873.11)"/></svg>